<svg id="Layer_1" data-name="Layer 1" xmlns="http://www.w3.org/2000/svg" viewBox="0 0 71.3 72.2">
  <defs>
    <style>
      .cls-1 {
        fill: #fff;
      }
    </style>
  </defs>
  <title>instagram</title>
  <g class="cls-1">
    <path d="M50.6,26.3c2.2,2.5,3.5,6.6,3.5,10.6a18.4,18.4,0,0,1-36.9.1c0-4,1.3-8.2,3.5-10.6H0V58.1A14.1,14.1,0,0,0,13.9,72.2H57.5A14.1,14.1,0,0,0,71.3,58.1V26.3Z"/>
    <path d="M57.5.3H18.6V18.9H16.1V0H14.3V18.9H11.2V.3c-.6.4-1.2.5-1.9.9V18.9H6.8V2.6A13.3,13.3,0,0,0,0,14.2V24.4H22.4a17.5,17.5,0,0,1,13.3-5.7,17.5,17.5,0,0,1,13.3,5.7H71.3V14.2A13.6,13.6,0,0,0,57.5.3Zm7.6,16.5A2.1,2.1,0,0,1,63,18.9H55.4a2.1,2.1,0,0,1-2.1-2.1V9.2a2.1,2.1,0,0,1,2.1-2.1H63a2.1,2.1,0,0,1,2.1,2.1Z"/>
    <path d="M35.7,49.8A12.9,12.9,0,1,1,48.6,36.9,13,13,0,0,1,35.7,49.8Zm0-22.1a9.2,9.2,0,1,0,9.2,9.2A9.2,9.2,0,0,0,35.7,27.7Z"/>
  </g>
</svg>
