<svg xmlns="http://www.w3.org/2000/svg" viewBox="0 0 145.1 143.2">
  <g id="icon">
    <g>
      <path d="M40,170.5a7.8,7.8,0,0,0,7.8,7.8H88.6V100H40Z" transform="translate(-27.4 -35.1)"/>
      <path d="M111.4,178.3h40.8a7.8,7.8,0,0,0,7.8-7.8V100H111.4Z" transform="translate(-27.4 -35.1)"/>
      <path d="M27.4,81.1v8.7a4.8,4.8,0,0,0,4.8,4.8H88.6V76.3H32.2A4.8,4.8,0,0,0,27.4,81.1Z" transform="translate(-27.4 -35.1)"/>
      <path d="M167.8,76.3H111.4V94.6h56.3a4.8,4.8,0,0,0,4.8-4.8V81.1A4.8,4.8,0,0,0,167.8,76.3Z" transform="translate(-27.4 -35.1)"/>
      <polygon points="67.7 59.5 67.7 62.9 67.7 141.2 77.5 141.2 77.5 62.9 77.5 59.5 77.5 41.2 67.7 41.2 67.7 59.5"/>
      <path class="cls-1" d="M160,41.2c-3.4-7.7-19.5-8.1-35.9-.9a38.4,38.4,0,0,0-12.6,9.2l-4.2,5.1a62.2,62.2,0,0,0-6.2,10.8l-1.2,1.2-1-1.1a62.2,62.2,0,0,0-5.6-9.9c-1-1.6-3.5-4.5-4.2-5.4h0a38.9,38.9,0,0,0-13.3-10C59.4,33,43.3,33.5,40,41.2s7.3,19.8,23.8,27A36.8,36.8,0,0,0,76.2,71h47a37.2,37.2,0,0,0,13.1-2.9C152.8,61,163.4,48.9,160,41.2ZM69.6,65.4C58.3,60.5,51,52.3,53.3,47s13.3-5.5,24.5-.6S94.1,64.8,94.1,64.8,80.8,70.3,69.6,65.4Zm60.9,0c-11.2,4.9-24.5-.6-24.5-.6s5-13.5,16.2-18.4,22.2-4.6,24.5.6S141.7,60.5,130.4,65.4Z" transform="translate(-27.4 -35.1)"/>
    </g>
  </g>
</svg>
