<svg id="Layer_1" data-name="Layer 1" xmlns="http://www.w3.org/2000/svg" viewBox="0 0 61 61">
  <defs>
    <style>
      .cls-1 {
        fill: #fff;
      }
    </style>
  </defs>
  <title>icon-time</title>
  <g class="cls-1">
    <polygon points="31 35 31 17.6 24.9 17.6 24.9 35 24.9 40.6 31 40.6 48.4 40.6 48.4 35 31 35"/>
    <path d="M52,9,50.9,7.9h0a30.6,30.6,0,0,0-6-4.2h0A30.2,30.2,0,0,0,38,1h0L37,.7h-.5L34.9.3h-.4L30.8,0h-.2a30.5,30.5,0,0,0-7.1.8h-.2l-1.1.3-.5.2-1.4.5-1,.4-.6.2-1,.5-.4.2-.6.3h0a30.6,30.6,0,0,0-6.1,4.1h0a30.7,30.7,0,0,0-4.3,4.7l-.2.2-.4.6h0a30.5,30.5,0,0,0-3.5,6.5h0v.4l-.3.7-.3.9-.2.8L.8,23.7l-.2.8-.2.9v1.2h0a29.8,29.8,0,0,0-.1,7.3h0v.4l.2,1.2v.6l.2,1.1.2.7.3.9.2.7.2.6.3,1h0a30.4,30.4,0,0,0,3.4,6.5h0a30.6,30.6,0,0,0,4.8,5.5h0a30.7,30.7,0,0,0,6,4.2h0l1.1.5h.2l1,.5.5.2,1,.4.6.2,1,.3h.5l1.1.3h0a30.5,30.5,0,0,0,7.3,1h1.5l2.2-.2,3.7-.6L36,53.9l-2.9.5H30.5a23.9,23.9,0,0,1-9.3-1.9h-.1a24.2,24.2,0,0,1-13.5-15h0c-.2-.7-.4-1.4-.5-2.1v-.4a23.9,23.9,0,0,1,0-9.4H7q.2-1.1.6-2.2h0A24,24,0,0,1,11.3,16l1-1.2.8-.9,1-1a24.1,24.1,0,0,1,7-4.6h.1l2.1-.8h.1a24,24,0,0,1,7.1-1.1h4.3l1,.2h.3a24,24,0,0,1,11.3,6.4l-6.8,6.9H58V2.9Z"/>
    <path d="M41.5,51.9l2.9,5.7a30.5,30.5,0,0,0,6.1-4.1l-4.2-4.9A24.1,24.1,0,0,1,41.5,51.9Z"/>
    <path d="M60.8,27.2v-.2l-6.4.8q.1.9.1,1.7a24.1,24.1,0,0,1-.2,4.1l6.4.8a30.6,30.6,0,0,0,.2-5.2C61,28.6,60.9,27.9,60.8,27.2Z"/>
    <path d="M50.2,44.4l5.3,3.7a30.6,30.6,0,0,0,3.5-6.5l-6-2.4A24.2,24.2,0,0,1,50.2,44.4Z"/>
  </g>
</svg>
