<svg id="Layer_1" data-name="Layer 1" xmlns="http://www.w3.org/2000/svg" viewBox="0 0 1202 80.9">
  <defs>
    <style>
      .cls-1 {
        fill: #CB467B;
      }
    </style>
  </defs>
  <title>grunge</title>
  <g class="cls-1">
    <path d="M974,89H952c-1.9-.4-3.8-1-5.7-1.3-10.7-1.8-20.8-5.9-30.8-9.7a213.4,213.4,0,0,0-30.3-9.7c-13.5-3-27.3-3.8-41.1-4-5.6,0-11.3.5-16.9.8s-9,.6-13.4,1.3c-12.3,2-24.2,5.7-35.9,10.1q-13.5,5.1-27.3,9.5c-4.4,1.4-9,2-13.5,2.9H716l-6.7-1.4c-10.5-1.9-20.6-5.5-30.4-9.6-22.9-9.6-46.7-13.7-71.4-13.7-5,0-10,.3-14.9.8-7.4.7-14.9,1.5-22.2,2.7-11.3,1.9-22.1,6-32.8,10.1s-20.1,7.8-30.8,9.7L500,89H473a4.3,4.3,0,0,0-1.3-.6c-10-1.1-19.4-4.4-28.8-7.9-7.5-2.8-14.9-5.6-22.5-8.2-17.7-6-36-7.7-54.5-8a161.1,161.1,0,0,0-17.4.9c-7.1.7-14.2,1.5-21.2,2.7-10.5,1.9-20.5,5.6-30.4,9.3-8.2,3.1-16.5,6-24.9,8.7-4.5,1.4-9.3,2.1-14,3.1H231l-6.8-1.4c-10.7-1.8-20.7-5.9-30.8-9.7s-21.5-8-32.8-10.1c-8.5-1.6-17.1-2.1-25.7-3-11.5-1.2-23-.3-34.3.6-15.1,1.2-29.7,5.4-43.9,10.8-9.9,3.8-20,7.1-30.1,10.4C22.9,87.8,18.9,88.2,15,89H1V49l3.3-2.8L1,44V37l3-1,.4,4h.8V36.1h8l2.1-3.9L23,31l.7-2.7,5-2,1.1-4.9c.8,0,1.9.2,2.3-.2,2.2-1.8,4.5-.6,6.5-.1s4,2,5.9,3.1a2,2,0,0,1,.8,1.3c.9,4.6,3.5,9.2-.1,13.6a34.4,34.4,0,0,1,.7,3.5c.1,1.2-1.4,2.5.2,3.6,2.7-2,.3-5.2,1.5-7.5l4.8.9,1.8,3.3.8-.2-.6-6,11.2-4.4,6,1.7.8,3.9L81.6,41a19.9,19.9,0,0,0,4.3.8c1.8.1,3.6,0,5.5,0l.3,4.2a34.8,34.8,0,0,0,2.8-3.9c.7-1.3,1-2.9,3.5-2.9l5.4,7.4,2.8.3c.3,0,.6-.2,1-.4a3.5,3.5,0,0,1,2.9-4.3c.4-.1.9.2,1.5.4l-1.1,3.2,3.8-.5-3.4-6.2,2.1-1.8,6.6,4.1,1.5-3-.5-5.4,2.8-1.3,3.4,5.5a17.4,17.4,0,0,0,.8-1.7c.2-.7.4-1.5.6-2.4h3.2l1.9.3.5,1.9,7.1-1.5c3.6,1.8,6.3,4.1,9.7,2.8l2.2,2a11.7,11.7,0,0,1,8.7-7.3l3.3-7.8,3.8,3.9-.7,2.2c4.2.8,8.5,1.2,12.6-1.3-.1-1.4-1.1-3,1.3-4.1l4.5,2-1.1,2.4,7.8-.8,9.1,7.9,4.2.4,3.5,2.6,3.8-6h3.4l2.1,2.9,3.7-3.3-3-2.2c.6-.7,1-1.5,1.4-1.5,2.4-.1,4.8-.1,7.2-.1,1.5-4-2.7-5.6-3.5-8.3,1.8-1.9,3.2-.2,4.6-.3l.2,2.9,4.4-1.8L245.9,23l2.4,4.5,11.4,10.3c5.8-.5,10-3.7,12.5-9.3l3.1-1.1,1-3.6,8.5,2.1,2-.9a50.8,50.8,0,0,1,6.9.6,44.1,44.1,0,0,1,6,2.3L300,25c1.5.6,2.9,1.9,5.1.8-1.7-2.3-3.3-2.1-5.1-.7l-1.9-.7L299,22l2.3-1.1L299,20l5.2-1.8c1.2-1.2,1.4-3.7,4.4-3.7-.9,2.7,3.8,3.6,2.1,6.8-1.8-.9-3.5-2-5.3.6l3.9,1.8c.1,3-2.2,5.6-1.3,8.7,3.6-.5,3.2-3.8,4.4-6.2l5.3,2.6c-.6,1.4-1.6,2.7-1.3,3.5,1.1,3.2-1,4.5-3.2,5.8l.7,2h0l-1.6.6,1.3,3.3,3.4-.6,4.4,2.2-.7-5.5,2.7,2.2V36l3.8,1.9L331,32h9.5l3.1,1.5,7.9,11.5c2.5-2.7,3.6,3.3,6.6.8l-3.6-5c2.2.5,3.4.8,4.6,1s2.4.5,2.6-1.3l.5-.6a6.6,6.6,0,0,0,1-1.9c.4-2.1,1.7-3.1,3.6-3.7l3.8.7,2.3,3.9,6.1-.3c1.4,1.2,2.4,2.7,3.8,3.3,3.2,1.3,4.3,3.9,5.1,6.8.2.9.3,1.8.4,2.5l3.9-4c2.3.3,4.3,1.6,5.9-.2s-2-5,1.4-6.6c2,.6,4.3.5,5.4,2.9l-1.3,1.2.6.4L405,43l8,1.2-.9-3.6c2.6-1.5,4.6-.4,6.6.4l8.5,3.1-1.8-4.2,3,.4c.8-1.5,1.1-3.6,3.6-3.3.7,2.5-.7,4-2.8,5.4l2.7,4.3,4.6-1.7c-2.5-.3-4.7.9-5-2.1l5-3L432,37c1.1-2.8,4.3-1.9,5.7-3.3l10.2.9c.9,3,5.9,5.4,1.7,9.7a6.7,6.7,0,0,0,7.3,4.8,11.8,11.8,0,0,1,7.4,1c.9.4,2.1.1,3.2.1L468,48H468c.8-.2,2-.3,2.2-.8a5.4,5.4,0,0,1,3.9-3.1l.2-2.7,5.4-1.7,4,2-2,5.2c1.6,2.4,3.3,3.9,6.2,4.1.1-3.3-.8-6.4,1.2-9.3h1.5l1-1.7,5.7-.8c.4,2.8,3.2,2.9,4.4,4.7a10.1,10.1,0,0,0,6.2-5.8l2.7,2.1,1.2-3-3.9-5.5c.4-2.8-.9-5.8.9-8.5h1.4l3.3-5.4-1-2.4,5.9-2.6,2.6,1.9,4.3-.2v4.4l-1.9-2.2a7.2,7.2,0,0,0,.2,6.6l3,1.8-.7,1.6-.5,1.6.6.3,3-3.3c2.7,1.4.5,3.6,1.6,5.4l1.4.8,2.4-4.4-.2-4.6,7.3-.8,2.2-1.9-2.4-4.2.6-.5,3.2,2.6,3.8-.4,9.9,6.7,2.8-1.2,2.6,2.3,1.3-1.2-1.2-2.9c3-.5,3.7,1.8,5.3,3L574,22c1.9,2,4.2.3,6.1.1,3.9,1.7,3.4,5.8,5.6,8.5l7.7.5,3.5,2.7,5.5-.5,2.2,2.4,6.1-1.1,2.5,2.2c2.9.5,4.9-.4,6.3-2.5l-.3-2.7,4-1.4c1.6.9,3.5,1.3,3.6,2.1s1.3,1.8,2.5,2.1l3.1-2.4-1.6-1.7,1.8-1c5.9,3.1,7.1,3.2,10.3.3l-3-3.5c3-2.6,3-2.6,6.4-.4,7.1-5.6,15.3-5.5,23.1,5.3l.4-3.6,5.7.7,2.4-3.9c2.8.7,1.8,4.9,5.2,4.5l1.2-3.3L687,27l-2,3.3,2.9,1.3c1-2.1,1.3-3.7-1-4.6l1.2-3.3-3.4-2.8,6.6-3.3,3.8,2.1,4.8-2.6c3.3.8.4,4.3,3.2,5.5l4.7-.3,1.2-5.2,9.8,2.1c2.5,2.7,3.5,7,7,9.3l5.1-1,1.5,3.1h1.8l2.5-2.6c2.5,2.1,5,0,7.7-.2s5.3-.2,7.9-.3l.2-2.9,6.3-4.2-1.6-3.8,2-1.6,7.1,4.1-.3-2.2,3.1-6.7,3.3,3.1-2.3,1.2,2.1,1.8,8.1-1.5v3.4c6.3-3.8,12.2-2.8,18.3.5l5,9.9,5.4.6a7.1,7.1,0,0,0,1.6,1.4A20.4,20.4,0,0,0,814,32H814c.9.2,2.1.7,2.6.4a37.5,37.5,0,0,0,4-3.5,7.5,7.5,0,0,1,1.3-.7l3.6,2.4c.9,2.5.6,5.6,3.5,7.2.2-3.3-1.5-6.6,2.3-8.8,2,.2,4.1,1.6,6-.5L837,24h0c2.7-.1,5.3-.6,7-3.3,1.7.2,3.6,0,4.9.8s4.9,1.6,7.5,1.7a9.1,9.1,0,0,1,2.2.7l-.7,2.6a20.3,20.3,0,0,0,4.3-3.5c.5-.5,1.5-.5,3.2-.9l-2.7,4.8c2.7-1.3,5.5.2,8-1.7s5.3-1.6,7.8-3.3l1.4-3.3,8.8,7.8,3-4.6,6.6-2.6,11.9,4.8,2.8,4,4.7-1.5,4.8,3.2,7.1,8.4,3.2-1.6,3.5,1.2c1.9-2.2,4.1-.4,5.5-.5l9.6,5.7,2.3-2.1c1.4.7,2.2,2.8,4.3,1.5l.5-.3,7.2-1.5v-.5h10.7a11.9,11.9,0,0,1,2-1.3,16.6,16.6,0,0,1,2.9-.7,22.8,22.8,0,0,0-.9-2.8,13.5,13.5,0,0,0-1.4-2l.6-.7,5.7,3.1,3.5-1.8c.4-3.4,2.6-4.5,5.2-5.1l2-4.2-.9-2.6,8.3-.7,1,3.8,3.8-2.1c3.1.2,4.7,2,6,4.2l4.2-.9,1.2,3-3.3,1-.7,4.4,3.4-2.6,2.9.9,1-3-2-3.5c1.8-1.8,3.1-.7,4.1.3s.8,1.8,1.3,2.6.8.4,1.6.7V26.4l6.6-.4c1.6,1.5,1.6,0,2-1l2-1,2.4,1.3,4.2-1.2c2.3.6,4.6,1.5,6.6-.5l.3-2.2c3,2.4,0,3.8-.6,5.1,1.8,1.9,3,.5,3.9,0l5.8,2.5-.3-5.9L1062,22c.1,1.5,1,2.1,2.6,2.2A2.4,2.4,0,0,0,1062,22l-1-3.9,2.1-1.9,2.1,3.9,7.7-.6-2.8,4.2,4.8,5.8-.4,2.3,6.4,6.1h5l-4.4,3.7c1,.1,1.6.3,2,.1l2.2-1.1,7.2,1.4,3.8-2.8,4,2.3c.2.1.6-.2.9-.3l-1.6-3.2c3.8.4,5,5.2,7.6,4l7.5-4.9-2-1.1,1.1-1.7,6.3,2.5-.4,1.6.7.3,2.9-3.3,5.2,1.8,2.4-4.4,2.8,2.3c.8-1.2,1.4-2.6,2.4-3.1,3.8-1.8,5.1-5.5,7.2-8.6l3.3-1.4c-1-1.2-2.5-2-1-3.4,4.8,1,7.1,5.3,10.5,8.4l-.9,2.8,5.3,7.6c2.6-1.8,5.7-.8,7.8-2.8V32l-1.9-1.6c1.9-2.4,3.8-1.3,5.5-1.2l1.4,2,7.1-1.7c4.3,2.3,9.1,2.7,10.5,7.5l2.7.5-1.2,3.3c3.3-.3,4.2-3.1,6-4.6L1203,38V89h-14l-5.7-1.3c-11.4-2-22.1-6.1-32.7-10.4a181,181,0,0,0-68.6-13c-6.3,0-12.6.4-18.9.9-9.1.6-18.2,1.6-27,4.4-10.6,3.3-21.1,7-31.5,10.8-8.1,2.9-16.3,5.8-24.8,7.3ZM559,34l1.9-.7-3.1-2.6-.5.5L559,34l-2.4,1,.4.7ZM305.7,37.5l.7.5,2.3-2.5-1.5-1.3ZM434.4,50.1l.5.5c.5-.3,1.2-.4,1.4-.9a5.8,5.8,0,0,0,.3-2l-.6-.2ZM311.5,33.2l.7.4c.1-.2.4-.6.3-.7s-.5-.3-.7-.4ZM457.2,51.7l-.2-.5-1.5.6.2.6ZM58.1,44.2l.2-.4h-.8c-.1,0-.1.3-.1.4ZM561.8,28.5l.8-.2-.4-.6Zm316.5-3.6v-.4l-.7.3s.1.3.1.4Z" transform="translate(-1 -8.1)"/>
    <path d="M732.6,30.8l.6-2.1h.7l.5,2.2Z" transform="translate(-1 -8.1)"/>
    <path d="M361.7,40.4l-1.8.4-6.1-3.2,2.3-2.4V32.1l6.5,1.6-.2,2-4.7.9c3.1.2,4.4,1.1,4.4,3.2Z" transform="translate(-1 -8.1)"/>
    <path d="M1129.2,33l-1.4,1.7-2.9-1.4c-1.8-.2-4,2.4-5.7-1.3l6.2-1.7Z" transform="translate(-1 -8.1)"/>
    <path d="M293,16l.8-6.6,3.7-1.3-2.1,3.4.5,2.7L293,16Z" transform="translate(-1 -8.1)"/>
    <path d="M468,48l-.4-2.8L465.2,43l.4-.7,4.7.7c.7,2.4-1,3.6-2.3,5Z" transform="translate(-1 -8.1)"/>
    <path d="M302,14.5,299.8,11c1.6-1.3,2.8-1.1,4.1.9Z" transform="translate(-1 -8.1)"/>
    <path d="M293,16c1.1,3.1,1.1,3.1.2,6.3l-2.1-.2,1.9-6Z" transform="translate(-1 -8.1)"/>
    <path d="M837,24c-1.3-.7-2.7-1.4-1.3-3.7l4.5.8L837,24Z" transform="translate(-1 -8.1)"/>
    <path d="M1065.8,12.7c1.6,1.9,2.6,3.1,1.5,5.2C1065.4,16.7,1064.7,15.4,1065.8,12.7Z" transform="translate(-1 -8.1)"/>
    <path d="M155.8,26.5l1.4,4.9-4.3-2.6Z" transform="translate(-1 -8.1)"/>
    <path d="M506.8,31.1c0,2.8-1.9,3.2-3.2,4.3C503.5,33.3,504.1,31.8,506.8,31.1Z" transform="translate(-1 -8.1)"/>
    <path d="M989.4,27.4l-4.2.5.6-2.1a4.6,4.6,0,0,1,1.6,0A13.2,13.2,0,0,1,989.4,27.4Z" transform="translate(-1 -8.1)"/>
    <path d="M960,37l2.4-1.1,1.1,2.1c-.9,1.5-2,1.1-3.4-1.1Z" transform="translate(-1 -8.1)"/>
    <path d="M91.1,41.1c1-3,1-3,3.7-3.3C94.4,39.7,93.4,40.7,91.1,41.1Z" transform="translate(-1 -8.1)"/>
    <path d="M500.2,21.5l3.2.3v.9l-2.3,1Z" transform="translate(-1 -8.1)"/>
    <path d="M8,34.3l-2.8.8,1.5-3.8Z" transform="translate(-1 -8.1)"/>
    <path d="M1142.7,18.5l-3.2.3C1141.4,17.1,1141.4,17.1,1142.7,18.5Z" transform="translate(-1 -8.1)"/>
    <path d="M683,21.9l-1.3,4C680.5,24,680.7,23.1,683,21.9Z" transform="translate(-1 -8.1)"/>
    <path d="M1130.9,29.3l2.2-1.2v4.3Z" transform="translate(-1 -8.1)"/>
    <path d="M1036,25l-2,1c-.7-1.2-1-2.4,1.2-2.9Z" transform="translate(-1 -8.1)"/>
    <path d="M674.6,23.5v2.2h-.8l-.7-2.1Z" transform="translate(-1 -8.1)"/>
    <path d="M314,40c.9-.1,1.8-1.7,2.7.1-1,1.1-1.9.7-2.7-.2Z" transform="translate(-1 -8.1)"/>
    <path d="M564,19.7l-1.1-1.5.7-.5,1.1,1.5Z" transform="translate(-1 -8.1)"/>
    <path d="M453.1,41.8l.3-2.5h.7c.2.5.5,1,.5,1.4S453.9,41.1,453.1,41.8Z" transform="translate(-1 -8.1)"/>
    <path d="M874.6,19.5l-.4,1.7-.8-.2.3-1.8Z" transform="translate(-1 -8.1)"/>
    <path d="M814,32c0-1.6.2-2.9,3.2-2L814,32Z" transform="translate(-1 -8.1)"/>
    <path d="M510.5,16.3c-.3.1-.6.3-.8.2s-.2-.5-.4-.8.6-.3.8-.2S510.4,16,510.5,16.3Z" transform="translate(-1 -8.1)"/>
    <path d="M859.8,19.4l1.1,1.4-.5.5L859,20.2Z" transform="translate(-1 -8.1)"/>
    <path d="M299,20q0,1,0,2.1l-2.1-1Z" transform="translate(-1 -8.1)"/>
    <path d="M1129.2,28.9l-2-.5.2-.8,2,.6Z" transform="translate(-1 -8.1)"/>
    <path d="M271.8,26.7l-.5-.7,1-.6c.1.3.3.6.3.8S272,26.6,271.8,26.7Z" transform="translate(-1 -8.1)"/>
    <path d="M312.6,13.6l-.5-1.5.5-.2.8,1.3Z" transform="translate(-1 -8.1)"/>
    <path d="M1090.7,38.9l-1.7,1-.5-.6L1090,38Z" transform="translate(-1 -8.1)"/>
    <path d="M957.8,42.2c-.8-1.1-.8-2,.9-2.9l-.5,2.6Z" transform="translate(-1 -8.1)"/>
    <path d="M106.6,43l-1.7,1-.4-.7,1.7-1Z" transform="translate(-1 -8.1)"/>
    <path d="M1141.3,23.1h-1.7v-.7l1.7-.3Z" transform="translate(-1 -8.1)"/>
    <path d="M616.8,32.9l-.9.9-.7-.5.6-1.2Z" transform="translate(-1 -8.1)"/>
    <path d="M960,37h-2.4l.2-.9,2.2.9Z" transform="translate(-1 -8.1)"/>
    <path d="M1029.3,23.1l.7-.8.4.2-.8.9Z" transform="translate(-1 -8.1)"/>
    <path d="M994.6,18.5h-.8a3.6,3.6,0,0,1,.1-.8h.4Z" transform="translate(-1 -8.1)"/>
    <path d="M542.3,12.6l-.6.6-.2-.7Z" transform="translate(-1 -8.1)"/>
    <path d="M1121.6,25.3l.8-.9.4.4-.8.9Z" transform="translate(-1 -8.1)"/>
  </g>
</svg>
