<svg id="Layer_1" data-name="Layer 1" xmlns="http://www.w3.org/2000/svg" viewBox="0 0 1202 71.1">
  <defs>
    <style>
      .cls-1 {
        fill: #54243C;
      }
    </style>
  </defs>
  <title>grunge</title>
  <g class="cls-1">
    <path d="M1,44q0-3.5,0-7l2.9-.6.3,3.9,2.3-.8L5.1,37.4l1.6-1.6,2,1.1c1.6-2.6,3.3.4,5.2,0s-.7-4.2,2.3-5l1.3,1c1.3-1.8,3.4-.5,5.1-1.1l1.3-1.3-1.2-2.1,5.9-1.7,1.3-4-1.4-2.1,3,1.2,2.7-1.9L36,21.5l3.8-.4.4,2,1.5-1.2,4.5,4.4c-1.5,3,2.2,5.6.1,8.3l.8,1.6L45,38.6c1,4.3,1,4.3.8,6.1l.6,2.5c.7-1.6,1.4-2.7,1.5-3.9s-.5-2.4-.9-3.9l1.5-1.6,1,2.3,3.4-1.3.2,4.1h2.6L55,40.2l-.7-2.8L61.6,34h1.9L66,31.6l2.4,2.2,1.8-.9c2.6,1.7,2.2,3.7.9,6h5.9l6.2,3.2h8.7c-.3,1.4-1.6,2.5-.3,3.9h1.2l.5-2.8,1.5-.3c.6-1.3-.1-3.8,3-3.9l5.7,8,4.6-.2-1.5-2.1,3.2-2.5H112l-.2,1.5-1.9.7c1.2,1.4,2.4,2.5,4.1,1a10.3,10.3,0,0,0,1-1.1l-1.5-.3-2.7-5.5,2.1-1.6,4.9,3.9.3,1.9,2.7-2.3-.9-1.1,1.5-.5-.6-5.3,2.2-1.9,3,3.2-1.1,2h3.2l-1-2.5,1-1h6l-1.5,3.6,3.9-2.8h4.1c3.7,1.3,6.2,4.4,10.1,2.2l1.7,2.7c1.2-.8,1.3-2,1.6-3.4s2.2-1.6,3.3-1.7l1.8-2.8,2,1a41,41,0,0,0,2.1-3.9c.5-1.4.8-2.8,1.4-4.8,1.9,1.7,3.6,2.9,4.5,5l-3,1.7c2.4,0,4.3-.5,4.9.1s2,0,3.1.4,2.6-.2,3.9-.6a20.3,20.3,0,0,0,3.2-1.7l-1.6-2.8,1.7-1.8,5.7,2.8-2,1v1.4l8.4-1,4.3,4.3c1.3,1.2,3.7,1.4,3.6,3.9h5c1.6.9,2.2,3,4.4,3.1.2-3,2.1-5,3.7-7.1l1.1,1,1.4-1.1,1.8,4.3c.7-2.1,2.9-1.9,3.9-3.2a5.9,5.9,0,0,0,.6-1.6l-3.8-1,2.3-2.5,8.2,1.2L228.6,24l-1.8,1.6.9-3.4-2.5-.4V18.6l4.9,1.9-1.2,1.2,1.3,1.3,4.1-2.1,1.2,1.1c1.4,1.1,2.7-1.8,4.1,0l1-.9.5,1.3,5,.8,2.4,5.7,2,.2c1.6,3.9,6.9,4.4,7.7,9,7-.4,11.7-3.6,14.2-10.2h3.3l.5-4c2,.5,3.9.5,5.3,1.4s3.6.9,5.5.3,3.2,1.9,4.4-.6c1,1.5,2.4.8,3.6,1.1a33.4,33.4,0,0,1,3.7,1.9c.3.1.9-.2,1.3-.3s0-1.8,0-2.9a14.5,14.5,0,0,1,1.4,2.1h3.4V24a9,9,0,0,1-2,0,8,8,0,0,1-1.6-.8,6.4,6.4,0,0,0-1.3,1.5,7.9,7.9,0,0,1-3.1-.3l5.3-4.1-3.3-.6v-.6h4.6c1.5-2.2,2.2-4.9,5.3-4.6v1.1l-2,1,3.8,1.4v4.7L309.5,20h-3l-1.4,1.4c.7,2.7,3.4,1,4.6,1.8l-2.5,8.6,1.1,1,3.9-3.5V26.2c1.9.5,3.2,2.2,5.3,1.8.1,0,.3.5.6,1.1l-2.4,2.7L317,34l-1.6,3.1h-2.6l1,2.6-2,.7,1.1,2.2-1.4,1.6c2.6-.5,4.5.5,5.9-1l4.3,2.8,1.4-2,2,.8-1-4.3-1.1-5.1,4.8,3,3.1-6.6,5.9.9,2.8-1.6c.8.6,1.7,1.6,2.7,1.7s2.7,1.1,3,3.1,2.6,2.5,2,4.6c0,.1.2.2.4.4h2l1.3,2.7-1.4,1.9,3.5-1.4,2.9,2.7h2c-.1-2.8-.1-2.7-1.8-3.9a12.6,12.6,0,0,1-1.4-1.3c2.7-1.9,5.2,1.9,7.4-.2V40l2-1.5-.5-.5,3.9-3.9,1.1.9.8-.7,2.9,2.4v2.6l3.5-1,1.1.8,2.4-1.1c1.1,1.4,1.7,2.9,2.9,3.5,4.3,2.2,6.4,5.5,5.9,11.5l2-2.6-.7-.9,3.5-2.3,4.8.9c.7-.8,1.5-1.3,1.5-1.7a48.5,48.5,0,0,0-.8-5l.5.6.7-2.1a17.4,17.4,0,0,0,3.2,1.1,2.6,2.6,0,0,1,2.4,2l-.5-.5L403,44.9h1.9c.1-.8.1-1.4.1-2a13.3,13.3,0,0,1,7.7,2c.3.2.9-.2,1.4-.3L412,42.4V40.1c3.6-.6,6.3.3,8.2,2.6,2.9-.9,5,2,7.9.9l-2.8-2.8c-.1-.1-.1-.5-.2-1l3.8.9c-.3-2.2.3-3.9,2.9-3.7-.1,1.3-.1,2.5-.1,3.4l-2.6,1.8,1,3.3,2.1,1.2,3.7-1.2-.3-1.5c-1.9,1.2-3.5,1.7-4.6-.7,1.4-2.1,4.9-1.1,5.6-3.8L431.9,37l1.4-2,3.4-.2.6-1.6,7.1,1.5,3.1-1.1c.8,1.7,1.3,3.3,2.3,4.3s1.4,3.1,1.1,4.8l-1.8.5c.5,4.9,4.6,5.1,7.7,6.5l1.4-1.4,4.7.9,1.7,1.7,1-.9,1.4,1.2L468,48h2.8l.3-2.6,4-1.5-1.3-2.4,6.6-1.6,2.2,2.1,1.3-1.2v1.9l-1.9.7a17.2,17.2,0,0,1,0,2.6,5.4,5.4,0,0,1-.6,1.5A21.9,21.9,0,0,0,484,50a40.1,40.1,0,0,0,4,2,9.1,9.1,0,0,1,0-1.9,11,11,0,0,1,.8-1.9l-1.6-.5,2.1-7.1,1.4,2.8.5-3.2,6-.8,1.2,3.5L500,42c.2-.1.5.2.8.3l-.9,1.5h3.7l.7-1.8,2.4-.3.8-4.7,3,4.1,1.7-4.4c-1.8-1.2-2-3.7-4.3-4.5a14.4,14.4,0,0,1,0-2.5,4.1,4.1,0,0,1,.6-1.3,12.5,12.5,0,0,1-1.6-1.4c-.1-.1.1-.6.2-.9l1.6-.6-.9-2.4c2-.9,3.5,2.3,5.2,0l-.4-1.3-1.3.9a3.9,3.9,0,0,1,1-2.7c.6-.7,1.3-1.4,1.9-2l-.5-1.2-.7-1.1a8.6,8.6,0,0,1,7-2.6l.4,1.7H525v.6l-3.4.7,1.2,2.2c-2.2,2.7.2,4.3,1.3,6.2l2.9.5c-.6,1.4-2.8,1.8-1.7,3.7,3,.3,2.3-3.3,4.3-3.9l1.3,2.5-2.4,2.6,4.4,2.1.3-4.1,3-.5L534,25.5V23.5c1.2-.5,2.3-1.4,3.4-1.4a14.9,14.9,0,0,1,4,.8l2.5-4,4.7-1.8c1.2,1.9,4.6,1.7,4.7,5h3.3a7.1,7.1,0,0,1,1.2,1.2,7,7,0,0,1,.4,1.6l3-2.4,2.1,3.3,3.2-1.8-2.8-1.6.7-2,5.2,4.3.8-.7,3,.9-.6-3.7.6-.2,1,2.2,6-1.1c3.2,1.9,3.1,5.8,4.8,8.7,2.1.4,4.4-.4,6.3.8l1.5-1,3.6,3.6,5.7-1.1,1.9,2.9.9-.8c2.1.6,3.7-.5,5.6-1.1l1.6,2.8c4.7,0,4.8,0,7.5-2.9l-1.6-3.2c2.6,1.1,4.2-1.8,6.6-.4l-1.1,1.3,4.6.7-2.8,1,3.6,1.1,3.9-3.3-3.8-.5,4.1-1.9.9,2.3c2.4-1.3,4.7,2.7,6.9.3l2.4.6-.9-3.3L639,25.7l2.9-1.2-.5-.4h3.3l1,2.5c3.3-3.1,6-6.8,10.4-3.5,1.4-1.4,2.5-1.5,4-.6s5.3,2.6,6.6,5.6a16.5,16.5,0,0,0,2,2.8c2.8-.8.1-1.9.5-2.8l1.3-1.3,2,3c.1-1.6,1.8-1.8,2.7-2.7a34.7,34.7,0,0,0,2.6-3.3c3.3.1,1.3,4.2,4.2,5h2c.5,2,2.4,1.9,3.6,2.8,1.7-.9,1.6-2.3,1.3-3.6s-2-3.1,0-4.7l-.3-.4-1.1-1.1-1.1,1-1.8-2.3,7.5-2.9,2.8,2.5,5.4-3.5,1.8,2.5-1.1,1.3,2.6,4,1.8-2.9,1,2.4c1.9-2.1,3.6-4,1.8-7h3.3l1,2h6.3c2.4,3.3,3.6,7.4,6.9,9.9l6.1-1.2.6,3h3.5l.4-2.8h1.3l.7,1.5,10.5-2.3.5,1.4,3.9-1.2-1-3.8,2.6,1c.3-2.4,1.8-3.2,4.3-2.8l-.2-3.9-1.8-.4,2.6-2.3,8,4.9-1.8-3.7L769,14l3.6,3,6.8-2,1.3,1.3-.9,2.6,8.7-3.7.9,2.2,1.3-.9c1.8.2,3.3.1,4.5.6a16.3,16.3,0,0,1,3.4,2.5l4.5,9.1,2.8,1.4,2.2-1.3,3.2,3.2H814c.8,1.8,1.9,1.1,3,.4a14.9,14.9,0,0,0,4.2-4.1c.2-.3.8-.3,1.3-.4l1,2,.8-.7c2.7,2.4.6,7.4,5.2,8.9l-.7-6,2.7-3.2c1.3.4,2.4,1.1,3.4,1s2-.9,3.1-1.4l-.9-.9.7-.8L837,24h4.8l1.8-2.9h5l1.9,1.9a21.7,21.7,0,0,1,2.8,0,12.2,12.2,0,0,1,2.1.6l1.9-.8,1.5,1.6-2.6,3.2,4.4-1.9c.6-2.1,1.7-3.5,5-3.6l-3.7,4.5,1.4,1.4,1-2,4,1.2.7-1.8,3.5-1.1,1.5.9,2.3-2.7.9,3.8,1.8-.7-1.3-2.7,2.4-4,.7.2-.7,3.8h1.3l.8-2.1c1.3,2.3,4.1,2.7,5.1,5.1h2.2l.4-2.8.6.6,1.6-2.9h3.3l.6-1.8,4.7,1a7.6,7.6,0,0,1,3,1c2,1.7,4.5,2.1,6.6,3.2l1.9,4.2,5-2.1,2.3,1.2L918.7,29h4.1a25.1,25.1,0,0,0,2.1,4.4c.7.9,2.1,1.3,3,2.2a25.5,25.5,0,0,1,2.4,3.6l2-3.1,4.1,2.1,1.1-2.2,5.2,1.3,1.5,2.5,3.8.4v1.3l3.5,1.7,2-3.2c.4,1.9,2.2,2.3,3.7,2.9s.5-.6.8-1c1.9.2,4.2.2,5.5-1.1s4.1.8,5.9-.8c.2-.2,1.1.3,1.7.5l.7.2.6-1.8h1.2l.9,2,4.7-3.2,1.3,1.2,1.4-2.8-3.8-2.8,1.3-1.3c1,.6,2.2,1.9,3.1,1.8s.9,2.6,3.1,2l.7-1.7,4.2-.5-2.2-1,3.2-3.6,1.1.9,3.5-5.2-1.6-4.2c1.7.6,2.6,1.3,3.5,1.3s2.4-.7,3.6-.9a11.1,11.1,0,0,1,2.5.2l-1.2,4.7h1.4l1.9-3h4.4l3.2,4.1,3.7-1.3,1.5,2.6-4.3,1.6.6,4.5,3.7-2.7,2.3,1.4,1.6-1.7-.9-1,1.3-1.4-3-2.9,1.4-1.3,3.5,1.7v3.5l3.1-.3-1.7-3.9,4.3.7.8-.7c1.3.4,2.6,2.2,4.3.6q0-.8,0-1.5l2.8-1.3,1.4,2.2c2-.7,3.6-1.7,5.2-1.6s3.1,1.1,4.6,1.8,2.4,1.9,3.8,2.9l.5-2.9h1.3l.6,1.7,5,1.4-1-2.8.9-1.3-1.5-2.7,5.3,2.5c.2-2.6-1.9-2.6-2.7-3.3V16h.6l1.5,3.9,2.3,1.1c1.3-1.7,2.7-.6,4.1,0l.7-1.9,1.5.3-1.4,2.8-2.7.2c1.2,1.4,1.4,3.2,3.2,3.3l-.8.9,3.2,2.7-.5,3.4,4.1,1.8-.9,1.1,3.5,2.6a15.9,15.9,0,0,0,2.4,0,7.2,7.2,0,0,0,1.7-.8c.2,3-2.7,2.4-3.5,3.9a5.5,5.5,0,0,0-.3.8h4.2l1-2,2.1,2.1h5.7l2.7-2.8,3,2.8,3-.5-3.2-2.5.9-1.1,4,4h3.9c1.9-2.2,4.1-4.2,7.8-4.1l-1.8-1.8-1.1,1c-1.2-1.6.3-2.1,1.1-3l1.8,1.8,4,.4-1.3,2.5c1.7.4,3.1.4,3.6-1.5l-.8-1.2h5.8l1.2,2,2.6-5.6,2.1,3.5a56.2,56.2,0,0,1,5.8-5.9c2.2-1.8,3.4-4.4,4.3-7.3h6.2l-1.2-3.1,4.2,3,.2,2.1,4.3,2.9-2.6,1.9,6.4,8.7,2.3-2.1,4,1-2-2.2,3.6.9-.2-5-1.6,1.4V29.3c2-1.1,3.7,1.1,5.6,0l.6,3.2,3.3-2.4h4.4c1.7.8,3,1.7,4.3,1.9,3.4.4,4.9,2.4,5.7,5.4.1.2.4.4.3.3l3.5-.7-2.8,3.9h2.8l4-4.8c1.7.1,2.1,2.7,4.1,2V79H1V49H2.6l1.5-3.5ZM557,30l1,3.4-2.1,1,.6,1.9,4.2-2.8C560.4,31.7,559,30.8,557,30ZM306.7,33.8l-.6.5.7,1.4,1,1.1-2.9.7.4.5h2.3l1.2-2.8ZM434,50.5c2.6.3,2.9,0,2.7-3.8C435.7,48.2,433.9,48.6,434,50.5ZM313,33.9c.1-2.2-.7-2.2-2.1-1.5l.3,1.5ZM57.6,42.8l-.7.7.3,1.5,2.5-.5ZM455.1,53.1l3.4-1.9h-3.4ZM562.7,26.8l-2.5,2.5,2.8-.6Zm591.8,6c-1.1,2.7.1,2.4,1.3,2.1ZM34.6,27.5c2.9,1.1,2.4-.2,2.2-1.1Zm5.5,9.7v.9l2.6-.4v-.5Zm1030.6-5.9,2.5,2.5-.6-2.8Z" transform="translate(-1 -7.9)"/>
    <path d="M362,39.8l-2.8,1.1-1.7-2.7-1.7,1-2.5-3h3.3l-.9-4.8,3.8,2.4,1.6-1,2,2.2c-.4.5-.6,1-.8,1a25.1,25.1,0,0,0-4.5.4C359.9,37.1,362.4,37,362,39.8Z" transform="translate(-1 -7.9)"/>
    <path d="M1127.6,35.1l-2.1-2.1c-2.1-.7-4.4,2.9-6.5-.8l6.4-2.1,3.7,2.5Z" transform="translate(-1 -7.9)"/>
    <path d="M467.1,48.2V46.4l2-.8-4.1-2,.2-1.5,5.7,1.3c.5.6-.8.7-.8,1.2a19,19,0,0,0,0,2Z" transform="translate(-1 -7.9)"/>
    <path d="M836.2,24.3l-1.5-3.8.6-.4,1.2.9.8-.8,2.8,1.4Z" transform="translate(-1 -7.9)"/>
    <path d="M294,22.1l-3.6-.3,2.2-3.1-.7-3.1C294.6,17.4,293.9,19.6,294,22.1Z" transform="translate(-1 -7.9)"/>
    <path d="M1065.5,12.2c1.8,2,2.9,3.5,2.4,5.6-.5.1-1,.3-1.1.2A5.2,5.2,0,0,1,1065.5,12.2Z" transform="translate(-1 -7.9)"/>
    <path d="M152.9,28.6l1.8-1.7c2.1.7,2.7,2,1.9,4.6Z" transform="translate(-1 -7.9)"/>
    <path d="M768.9,13.8l-1.3-2.7,2.6-.2,2.7,2.8Z" transform="translate(-1 -7.9)"/>
    <path d="M93.5,37,95,38.5c-1.1,1-1.8,2.4-3.9,2.7C90.7,38.8,92.6,38.3,93.5,37Z" transform="translate(-1 -7.9)"/>
    <path d="M960,37.1l2.3-1.4,1.7,3-3.9.3Z" transform="translate(-1 -7.9)"/>
    <path d="M1050,26V24.5l1.8-.8-1.1-3.4C1054,24,1053.7,25,1050,26Z" transform="translate(-1 -7.9)"/>
    <path d="M502.9,35.5l1.4-3.3,3-1.2C506.6,33.6,504.7,34.5,502.9,35.5Z" transform="translate(-1 -7.9)"/>
    <path d="M684.5,29.2l-1.1-1.3,1.3-2.5,2.5,2.2Z" transform="translate(-1 -7.9)"/>
    <path d="M504.3,22.4l-2.8,2.3-.6-4.1Z" transform="translate(-1 -7.9)"/>
    <path d="M985,27.4V26.2h3.8v1.6Z" transform="translate(-1 -7.9)"/>
    <path d="M323.4,44h-2.2l-.2-3.9.8-.2Z" transform="translate(-1 -7.9)"/>
    <path d="M292.7,16.3l1.8-4.4,2.1,2.3Z" transform="translate(-1 -7.9)"/>
    <path d="M304.5,13.4c-2.5-.6-3.7-1.2-3.4-3.3C303.1,9.9,303.7,11.1,304.5,13.4Z" transform="translate(-1 -7.9)"/>
    <path d="M296.9,11l-1.7-1.1-1.9,1-.3-1.8a13.2,13.2,0,0,0,2.3-.2,6.7,6.7,0,0,0,1.6-1Z" transform="translate(-1 -7.9)"/>
    <path d="M1036.1,24.7l-1.6,1.2-1.5-1.5,2.5-2.1Z" transform="translate(-1 -7.9)"/>
    <path d="M1132.5,32l-1.4-2.6,1.5-1.6.9,2.2Z" transform="translate(-1 -7.9)"/>
    <path d="M543.9,19.4c-1.1-1.5-2.8-2.1-2.6-4.2C542.4,16.4,544.5,16.7,543.9,19.4Z" transform="translate(-1 -7.9)"/>
    <path d="M683.4,22.2l-2.2,4.4V22.2Z" transform="translate(-1 -7.9)"/>
    <path d="M6.7,31.9l1.5,2.4C6.4,36,6,33.9,4.9,33.6Z" transform="translate(-1 -7.9)"/>
    <path d="M1147.9,20.8h-3.2l1.7-3.1Z" transform="translate(-1 -7.9)"/>
    <path d="M1139.6,18.8l2.8-2.2.9,2.2Z" transform="translate(-1 -7.9)"/>
    <path d="M453.1,42.7V38.9l2.5.6Z" transform="translate(-1 -7.9)"/>
    <path d="M673.1,26.4v-3c1.1.2,2,.6,1.9,2.2Z" transform="translate(-1 -7.9)"/>
    <path d="M813.5,32.4l1.7-3.5,1.8,1.7Z" transform="translate(-1 -7.9)"/>
    <path d="M272.4,27.2l-2.1-1.7,2.5-.5.3,1.5Z" transform="translate(-1 -7.9)"/>
    <path d="M957.7,42.5c-1.5-2.1,0-2.6,1.3-3.2Z" transform="translate(-1 -7.9)"/>
    <path d="M563,18.1h1.8l.3,1.5C563.8,20.3,562.9,20.3,563,18.1Z" transform="translate(-1 -7.9)"/>
    <path d="M103.9,43.3l2.6-1.5.5.6a6.3,6.3,0,0,1-1,1l-1.5.6Z" transform="translate(-1 -7.9)"/>
    <path d="M1140.2,23.7l-1.4-1.4,2.9-.4.4.7Z" transform="translate(-1 -7.9)"/>
    <path d="M1130.8,28.8h-3.7V27.1Z" transform="translate(-1 -7.9)"/>
    <path d="M1091.3,38.3l-3,2.2C1089.1,38.4,1089.1,38.4,1091.3,38.3Z" transform="translate(-1 -7.9)"/>
    <path d="M316.4,41.2l-2.1-1.7,2.5-.5.3,1.5Z" transform="translate(-1 -7.9)"/>
    <path d="M873.1,20.6V19.2h1.7l.4.5Z" transform="translate(-1 -7.9)"/>
    <path d="M616.7,32.4l-1.3,1.1C615.2,32.1,615.2,32.1,616.7,32.4Z" transform="translate(-1 -7.9)"/>
    <path d="M859.4,19.3l2.1,1.3C859.1,20.8,859.1,20.8,859.4,19.3Z" transform="translate(-1 -7.9)"/>
    <path d="M511.2,16.7l-1.9.4-.6-2.8Z" transform="translate(-1 -7.9)"/>
    <path d="M959.8,36.9H957C958.7,35.9,958.7,35.9,959.8,36.9Z" transform="translate(-1 -7.9)"/>
    <path d="M1122.7,23.8l.4,1.9-2.8.6Z" transform="translate(-1 -7.9)"/>
    <path d="M1030.5,22.3l-1.2,2.6-.4-2.6Z" transform="translate(-1 -7.9)"/>
  </g>
</svg>
